HIERARCHY
ROOT Hips
{
 OFFSET 0.000000 0.000000 0.000000
 CHANNELS 6 Xposition Yposition Zposition Yrotation Xrotation Zrotation
 JOINT Chest
 {
  OFFSET 0.000000 9.585900 0.002600
  CHANNELS 3 Yrotation Xrotation Zrotation
  JOINT Chest2
  {
   OFFSET 0.000000 9.601200 -0.005300
   CHANNELS 3 Yrotation Xrotation Zrotation
   JOINT Chest3
   {
    OFFSET 0.000000 9.561800 0.000000
    CHANNELS 3 Yrotation Xrotation Zrotation
    JOINT Chest4
    {
     OFFSET 0.000000 9.552100 0.000000
     CHANNELS 3 Yrotation Xrotation Zrotation
     JOINT Neck
     {
      OFFSET 0.000000 14.453000 0.000000
      CHANNELS 3 Yrotation Xrotation Zrotation
      JOINT Head
      {
       OFFSET 0.000000 8.936500 -0.011300
       CHANNELS 3 Yrotation Xrotation Zrotation
       End Site
       {
        OFFSET 0.000000 17.073600 -0.006000
       }
      }
     }
     JOINT RightCollar
     {
      OFFSET -2.921100 9.558500 0.000000
      CHANNELS 3 Yrotation Xrotation Zrotation
      JOINT RightShoulder
      {
       OFFSET -13.519700 0.000000 0.000000
       CHANNELS 3 Yrotation Xrotation Zrotation
       JOINT RightElbow
       {
        OFFSET 0.000000 -29.696600 0.000000
        CHANNELS 3 Yrotation Xrotation Zrotation
        JOINT RightWrist
        {
         OFFSET 0.000000 -24.004700 0.000000
         CHANNELS 3 Yrotation Xrotation Zrotation
         End Site
         {
          OFFSET 0.000000 -17.728500 0.000000
         }
        }
       }
      }
     }
     JOINT LeftCollar
     {
      OFFSET 2.921100 9.558500 0.000000
      CHANNELS 3 Yrotation Xrotation Zrotation
      JOINT LeftShoulder
      {
       OFFSET 13.519700 0.000000 0.000000
       CHANNELS 3 Yrotation Xrotation Zrotation
       JOINT LeftElbow
       {
        OFFSET 0.000000 -29.696600 0.000000
        CHANNELS 3 Yrotation Xrotation Zrotation
        JOINT LeftWrist
        {
         OFFSET 0.000000 -24.004700 0.000000
         CHANNELS 3 Yrotation Xrotation Zrotation
         End Site
         {
          OFFSET 0.000000 -17.728500 0.000000
         }
        }
       }
      }
     }
    }
   }
  }
 }
 JOINT RightHip
 {
  OFFSET -7.771700 -0.012900 -0.001300
  CHANNELS 3 Yrotation Xrotation Zrotation
  JOINT RightKnee
  {
   OFFSET 0.000000 -40.869800 0.001200
   CHANNELS 3 Yrotation Xrotation Zrotation
   JOINT RightAnkle
   {
    OFFSET 0.000000 -39.717900 0.002100
    CHANNELS 3 Yrotation Xrotation Zrotation
    JOINT RightToe
    {
     OFFSET 0.000000 -4.965400 11.033500
     CHANNELS 3 Yrotation Xrotation Zrotation
     End Site
     {
      OFFSET 0.000000 -1.423100 5.872300
     }
    }
   }
  }
 }
 JOINT LeftHip
 {
  OFFSET 7.771700 -0.012900 -0.001300
  CHANNELS 3 Yrotation Xrotation Zrotation
  JOINT LeftKnee
  {
   OFFSET 0.000000 -40.869800 0.001200
   CHANNELS 3 Yrotation Xrotation Zrotation
   JOINT LeftAnkle
   {
    OFFSET 0.000000 -39.717900 0.002100
    CHANNELS 3 Yrotation Xrotation Zrotation
    JOINT LeftToe
    {
     OFFSET 0.000000 -4.965400 11.033500
     CHANNELS 3 Yrotation Xrotation Zrotation
     End Site
     {
      OFFSET 0.000000 -1.423100 5.872300
     }
    }
   }
  }
 }
}
MOTION
Frames: 7
Frame Time: 0.008333
-96.460598 62.138215 18.803584 173.519648 -50.208999 -0.626835 5.074864 26.819320 1.491828 0.746775 4.583415 0.212657 1.192753 7.261765 0.362210 3.858112 21.733204 1.615810 0.249439 14.635542 1.963893 -0.274923 -8.599245 3.588725 6.909810 4.194743 5.505320 -4.226957 -10.384548 -15.670161 -117.542119 -59.543090 152.584904 8.965555 -1.145515 2.083836 -9.917464 1.597767 -1.176609 -2.747305 -6.322913 18.838421 135.325949 -66.543530 -161.221315 2.828444 -0.573508 -3.039730 2.633626 -16.921426 -4.222294 -2.033632 59.754427 -5.559854 1.997370 -4.480057 10.122133 0.288475 -0.604759 0.136740 -4.084545 -13.122706 3.489064 31.341000 75.167370 33.993991 1.948943 -11.504819 -6.124881 0.247611 0.781599 0.112715
-96.461594 62.139555 18.804782 173.515781 -50.217495 -0.632513 5.079548 26.823053 1.490292 0.747699 4.585630 0.212399 1.195216 7.263931 0.370097 3.859017 21.734696 1.612668 0.251131 14.636406 1.963870 -0.269834 -8.596402 3.580533 6.925906 4.200147 5.490963 -4.245498 -10.383056 -15.637093 -117.539778 -59.549937 152.586117 8.979619 -1.127939 2.089318 -9.919206 1.595037 -1.172806 -2.736703 -6.320086 18.827231 135.337668 -66.552579 -161.240070 2.821505 -0.546317 -2.997240 2.636971 -16.910841 -4.209734 -2.019815 59.749307 -5.552018 1.995930 -4.473769 10.125801 0.284931 -0.607195 0.136040 -4.079056 -13.111979 3.493295 31.341124 75.161560 33.993679 1.985190 -11.501330 -6.135634 0.263181 0.786433 0.120441
-96.463101 62.140775 18.806153 173.514840 -50.223845 -0.636121 5.082381 26.826395 1.492941 0.747793 4.585384 0.211543 1.196328 7.268226 0.368612 3.858272 21.731572 1.610850 0.254819 14.638831 1.968256 -0.260399 -8.587325 3.564485 6.939096 4.204218 5.487026 -4.255804 -10.374382 -15.609081 -117.553488 -59.560468 152.599052 8.987990 -1.127911 2.090733 -9.928172 1.593240 -1.173351 -2.721199 -6.314823 18.826850 135.314141 -66.574668 -161.215041 2.810595 -0.546834 -2.975177 2.645517 -16.901381 -4.202453 -2.029561 59.743398 -5.560440 1.998432 -4.470256 10.127349 0.284024 -0.606710 0.137549 -4.077571 -13.102660 3.494010 31.337284 75.154229 33.992498 1.993317 -11.500717 -6.143722 0.264496 0.790719 0.125680
-96.465194 62.141971 18.807550 173.507229 -50.229407 -0.629279 5.084315 26.828847 1.488736 0.747369 4.585376 0.210828 1.198928 7.267854 0.367231 3.853041 21.732110 1.607855 0.264053 14.643528 1.963173 -0.254215 -8.578896 3.559870 6.957140 4.210018 5.481242 -4.269624 -10.348300 -15.567202 -117.610280 -59.572536 152.659638 8.994893 -1.124334 2.090867 -9.927141 1.600632 -1.177019 -2.709336 -6.316214 18.827910 135.282809 -66.611348 -161.165120 2.804236 -0.566047 -2.978934 2.651598 -16.893022 -4.200301 -1.996041 59.738007 -5.538062 1.990720 -4.469326 10.125843 0.279574 -0.604078 0.142178 -4.069665 -13.093865 3.491496 31.326183 75.149706 33.984450 1.979452 -11.506008 -6.139792 0.269413 0.795718 0.123759
-96.468486 62.142890 18.809068 173.507690 -50.232596 -0.619344 5.071722 26.828921 1.471069 0.746585 4.586542 0.210371 1.205362 7.267258 0.366716 3.841097 21.735175 1.603575 0.266693 14.655027 1.948782 -0.237348 -8.568942 3.557300 6.980520 4.211466 5.473829 -4.279138 -10.345112 -15.551384 -117.616423 -59.574586 152.664498 8.994148 -1.109280 2.085647 -9.917703 1.608154 -1.179950 -2.684362 -6.311430 18.792426 135.333631 -66.644916 -161.225283 2.800179 -0.571668 -2.979269 2.658374 -16.889067 -4.207314 -1.998521 59.737833 -5.543104 1.979788 -4.467528 10.124727 0.285072 -0.602292 0.140376 -4.065506 -13.088554 3.482803 31.304377 75.146667 33.966498 1.935307 -11.513497 -6.125533 0.267194 0.798906 0.115639
-96.470268 62.143674 18.810855 173.506153 -50.235235 -0.614645 5.063304 26.827796 1.460450 0.745812 4.587524 0.209494 1.201395 7.268389 0.365872 3.845705 21.737821 1.602659 0.270368 14.658996 1.946453 -0.223783 -8.542534 3.538116 6.995638 4.209788 5.467846 -4.279655 -10.326825 -15.524265 -117.634429 -59.590667 152.673025 9.003914 -1.103484 2.095193 -9.913933 1.608228 -1.184650 -2.668579 -6.305588 18.775938 135.350067 -66.674906 -161.242709 2.797676 -0.589979 -2.989222 2.672779 -16.886487 -4.205095 -2.018776 59.737849 -5.560363 1.967191 -4.461613 10.123529 0.294693 -0.605511 0.143327 -4.063222 -13.084521 3.480386 31.294773 75.140963 33.952850 1.930446 -11.511906 -6.119188 0.253353 0.799055 0.113554
-96.471140 62.144964 18.812241 173.504004 -50.242763 -0.612383 5.059366 26.831620 1.454457 0.746615 4.588710 0.209450 1.189916 7.268393 0.358851 3.856535 21.741386 1.606570 0.274477 14.663201 1.944356 -0.209409 -8.518143 3.521258 7.006079 4.207536 5.467487 -4.273331 -10.299958 -15.485807 -117.638938 -59.633940 152.678794 9.019766 -1.097421 2.112651 -9.915544 1.602822 -1.187219 -2.646863 -6.297623 18.757353 135.375496 -66.696949 -161.277299 2.792802 -0.579465 -2.971024 2.676437 -16.876663 -4.202960 -2.003252 59.734504 -5.547577 1.957669 -4.461935 10.115263 0.292306 -0.603467 0.148420 -4.062114 -13.076443 3.480701 31.298206 75.137184 33.951971 1.928790 -11.507288 -6.116714 0.251707 0.796547 0.113780
